<svg width="320" height="76" viewBox="0 0 320 76" fill="none" xmlns="http://www.w3.org/2000/svg">
<path d="M319.344 58.656H15.6284C15.2697 58.656 14.9789 58.9456 14.9789 59.3029V75.1351C14.9789 75.4924 15.2697 75.7821 15.6284 75.7821H319.344C319.703 75.7821 319.994 75.4924 319.994 75.1351V59.3029C319.994 58.9456 319.703 58.656 319.344 58.656Z" fill="#0080FF"/>
<path d="M124.79 28.9809C123.086 26.7828 121.34 25.133 119.553 24.0316C120.244 23.4317 120.897 22.7893 121.508 22.1082C122.175 21.3744 122.904 20.484 123.683 19.4266L137.066 2.17534C137.178 2.02456 137.253 1.84934 137.283 1.66424C137.313 1.47914 137.299 1.28949 137.241 1.11105C137.129 0.721502 136.77 0.526729 136.173 0.526729H127.618C127.17 0.491357 126.721 0.561662 126.305 0.731936C126.028 0.914735 125.79 1.15131 125.607 1.42755L113.749 17.2215C113.313 17.7881 112.828 18.3164 112.3 18.8006C111.853 19.2054 111.339 19.5313 110.782 19.764C110.164 20.0091 109.513 20.1603 108.851 20.2127C108.114 20.2788 107.196 20.3135 106.089 20.3135H96.3683V2.0397C96.3683 1.03105 95.8597 0.526729 94.8425 0.526729H87.3914C86.3346 0.526729 85.8062 1.03105 85.8062 2.0397V47.133C85.8062 48.1417 86.3346 48.646 87.3914 48.646H94.8425C95.855 48.646 96.3613 48.1417 96.3613 47.133V28.2923H106.836C108.952 28.2923 110.538 28.5102 111.595 28.9461C112.781 29.485 113.805 30.3245 114.563 31.3808L127.259 47.7278C127.442 48.0039 127.68 48.2405 127.957 48.4234C128.349 48.5906 128.775 48.661 129.2 48.6286H138.03C138.728 48.6286 139.078 48.3886 139.133 47.9052C139.203 47.5372 139.129 47.1569 138.927 46.8409L124.79 28.9809Z" fill="#1E2023"/>
<path d="M188.924 4.61707C187.229 3.09026 185.176 2.01365 182.953 1.4868C180.516 0.846838 177.549 0.526855 174.053 0.526855H142.936C141.918 0.526855 141.41 1.03118 141.41 2.03982V8.77337C141.41 9.78201 141.916 10.2863 142.929 10.2863H173.637C175.134 10.2545 176.629 10.4052 178.089 10.735C179.144 10.9661 180.113 11.4894 180.882 12.2445C181.629 13.0577 182.141 14.0561 182.366 15.1348C182.696 16.6352 182.848 18.1692 182.817 19.705V20.0528H158.414V29.1236H182.817V29.4714C182.848 30.991 182.696 32.5089 182.366 33.9929C182.134 35.0579 181.622 36.0422 180.882 36.8449C180.113 37.6001 179.144 38.1233 178.089 38.3544C176.629 38.6842 175.134 38.8349 173.637 38.8031H142.936C141.923 38.8031 141.417 39.3294 141.417 40.3821V47.1331C141.417 48.1417 141.923 48.646 142.936 48.646H174.053C177.544 48.646 180.511 48.3133 182.953 47.6478C185.174 47.1001 187.225 46.0141 188.924 44.4862C190.523 42.9464 191.688 41.0155 192.303 38.8865C193.016 36.5957 193.372 33.8004 193.372 30.5009V18.6755C193.372 15.3759 193.016 12.5691 192.303 10.255C191.695 8.11211 190.529 6.16725 188.924 4.61707Z" fill="#1E2023"/>
<path d="M238.564 5.7438C237.416 3.63608 236.252 2.2379 235.072 1.54924C233.892 0.860576 232.411 0.519724 230.631 0.52668H226.629C225.267 0.500877 223.926 0.862868 222.764 1.5701C221.661 2.26572 220.534 3.66391 219.384 5.76467L196.752 47.0564C196.647 47.2212 196.577 47.4056 196.547 47.5983C196.517 47.791 196.527 47.9878 196.577 48.1764C196.692 48.4755 197.024 48.6251 197.576 48.6251H206.615C207.398 48.6251 207.926 48.3271 208.201 47.7312L228.145 10.7662C228.213 10.623 228.321 10.5021 228.456 10.4172C228.591 10.3323 228.746 10.2869 228.906 10.2862H229.255C229.428 10.2656 229.604 10.3012 229.755 10.3876C229.907 10.4741 230.026 10.6068 230.096 10.7662L250.313 47.7451C250.451 48.0192 250.652 48.2574 250.899 48.4407C251.207 48.6 251.552 48.6711 251.898 48.6459H260.592C261.189 48.6459 261.549 48.4964 261.66 48.1973C261.713 48.0068 261.724 47.8076 261.695 47.6124C261.665 47.4171 261.595 47.2301 261.489 47.0634L238.564 5.7438Z" fill="#1E2023"/>
<path d="M319.774 46.8514L305.63 28.981C303.926 26.7828 302.18 25.133 300.393 24.0317C301.087 23.4321 301.744 22.7897 302.358 22.1083C303.025 21.3744 303.755 20.484 304.534 19.4267L317.91 2.17538C318.023 2.02499 318.097 1.84975 318.128 1.6645C318.158 1.47924 318.143 1.28942 318.084 1.11109C317.968 0.721546 317.612 0.526773 317.016 0.526773H308.458C308.011 0.491294 307.563 0.561613 307.149 0.73198C306.872 0.914926 306.634 1.15148 306.45 1.4276L294.589 17.2216C294.154 17.7889 293.669 18.3173 293.14 18.8006C292.693 19.2063 292.18 19.5322 291.622 19.764C291.004 20.0091 290.353 20.1604 289.691 20.2127C288.955 20.28 288.036 20.3136 286.932 20.3136H277.201V2.03974C277.201 1.03109 276.696 0.526773 275.686 0.526773H268.235C267.187 0.526773 266.646 1.03109 266.646 2.03974V47.1331C266.646 48.1417 267.173 48.6461 268.235 48.6461H275.686C276.694 48.6461 277.199 48.1417 277.201 47.1331V28.2923H287.676C289.792 28.2923 291.38 28.5103 292.439 28.9462C293.624 29.4852 294.646 30.3248 295.403 31.3808L308.098 47.7278C308.282 48.004 308.52 48.2405 308.797 48.4235C309.188 48.5907 309.615 48.6611 310.04 48.6287H318.87C319.568 48.6287 319.917 48.3887 319.973 47.9052C320.044 47.5415 319.972 47.1648 319.774 46.8514Z" fill="#1E2023"/>
<path d="M54.8461 18.1745V9.85492H34.2457C32.7103 9.82709 31.177 9.98239 29.6787 10.3175C28.5521 10.5727 27.5179 11.1323 26.6898 11.9348C25.9076 12.793 25.3636 13.8395 25.1116 14.9712C24.7661 16.5107 24.6067 18.0858 24.6368 19.6631V29.5338C24.6073 31.1141 24.7643 32.6924 25.1046 34.2362C25.3474 35.3804 25.8922 36.4393 26.6829 37.3038C27.51 38.1128 28.5476 38.6754 29.6787 38.9281C31.1827 39.2642 32.7221 39.4172 34.2631 39.3837H54.8636V31.4363H78.9557V40.0028H66.5011L66.543 40.3506C66.543 40.3924 66.543 40.4341 66.5675 40.4758C66.5919 40.5176 66.5675 40.5524 66.5675 40.5976V47.4215C66.5675 48.2737 66.2183 48.6389 65.3454 48.6389H33.8406C30.349 48.6389 27.3288 48.2911 24.9021 47.665C22.702 47.1498 20.6685 46.0885 18.9908 44.58C17.4083 43.0486 16.2583 41.1294 15.6564 39.015C14.9406 36.716 14.5844 33.8745 14.5844 30.5773V28.873H0V20.3065H14.5844V18.5988C14.5844 15.2981 14.9336 12.4739 15.6564 10.1992C16.2628 8.0949 17.4125 6.18572 18.9908 4.66216C20.673 3.15061 22.7034 2.07547 24.9021 1.5319C27.3358 0.881498 30.3421 0.533691 33.8406 0.533691H65.3629C66.2043 0.533691 66.5849 0.905845 66.5849 1.75102V8.57499C66.5883 8.78487 66.5576 8.99393 66.4941 9.19408L66.358 9.60797H78.9557V18.1745H54.8461Z" fill="white"/>
<path d="M34.2177 64.0888C34.5625 64.0867 34.9058 64.1336 35.2373 64.2279C35.5213 64.3053 35.7928 64.4224 36.0438 64.5757C36.2383 64.6946 36.4249 64.8259 36.6025 64.9687C36.7306 65.0724 36.8476 65.189 36.9516 65.3165L37.0599 65.4522L36.3616 66.1478L36.2743 66.0365C36.195 65.9464 36.1099 65.8616 36.0194 65.7826C35.8888 65.6601 35.7447 65.5528 35.5899 65.4626C35.4 65.3599 35.1999 65.2771 34.9928 65.2157C34.7407 65.1379 34.4781 65.0992 34.2142 65.1009C33.7007 65.1023 33.199 65.2548 32.7723 65.5394C32.3455 65.8239 32.0127 66.2277 31.8157 66.7001C31.6187 67.1725 31.5663 67.6924 31.665 68.1944C31.7638 68.6964 32.0093 69.1581 32.3707 69.5215C32.6112 69.7642 32.8993 69.9549 33.2171 70.0817C33.5349 70.2086 33.8755 70.2689 34.2177 70.2589C34.4827 70.2603 34.7465 70.2216 34.9998 70.1441C35.219 70.0823 35.4283 69.9898 35.6213 69.8693C35.7714 69.7719 35.916 69.6663 36.0543 69.5528C36.155 69.4693 36.2495 69.3786 36.3371 69.2815L36.4139 69.1598L37.1122 69.8554C37.0756 69.9086 37.036 69.9597 36.9935 70.0085C36.9377 70.0711 36.8213 70.187 36.6444 70.3563C36.4611 70.5138 36.2649 70.6558 36.0578 70.7806C35.8025 70.9236 35.5304 71.0346 35.2477 71.111C34.9149 71.2115 34.5689 71.2619 34.2212 71.2606C33.7344 71.2723 33.2503 71.1859 32.7979 71.0066C32.3455 70.8273 31.9342 70.5588 31.5885 70.2171C31.2523 69.8842 30.9855 69.4883 30.8034 69.0523C30.6213 68.6163 30.5276 68.1487 30.5276 67.6764C30.5276 67.2042 30.6213 66.7366 30.8034 66.3005C30.9855 65.8645 31.2523 65.4686 31.5885 65.1357C31.9335 64.7939 32.3441 64.5249 32.7959 64.3451C33.2477 64.1652 33.7313 64.078 34.2177 64.0888Z" fill="white"/>
<path d="M42.1437 64.1758V67.5599L45.2861 64.1758H46.6828L43.9873 67.0626L46.8818 71.1424H45.5305L43.2331 67.8591L42.1367 69.052V71.1389H41.0403V64.1758H42.1437Z" fill="white"/>
<path d="M56.0261 64.1758V71.1319H54.9263V65.1809H52.3739V66.2626C52.3838 67.1032 52.3348 67.9435 52.2273 68.7773C52.1709 69.3101 52.022 69.8291 51.7873 70.3111C51.641 70.6076 51.4165 70.8588 51.1379 71.038C50.8741 71.1786 50.578 71.2482 50.2789 71.2398C50.1512 71.2386 50.0238 71.2258 49.8984 71.2015C49.792 71.1816 49.687 71.1549 49.5841 71.1215L49.4794 71.0937V70.0503C49.655 70.1092 49.8387 70.1409 50.0241 70.1442C50.2003 70.1498 50.3738 70.0999 50.5199 70.0016C50.6935 69.8588 50.8281 69.6745 50.9109 69.4659C51.0657 69.0843 51.1577 68.6803 51.1833 68.2695C51.2496 67.6026 51.2799 66.9327 51.2741 66.2626V64.1758H56.0261Z" fill="white"/>
<path d="M59.7726 71.1524L62.6671 64.1963H63.767L66.6615 71.1524H65.5163L64.7656 69.3091H61.6685L60.9178 71.1524H59.7726ZM63.2188 65.4275L62.0701 68.3143H64.3675L63.2188 65.4275Z" fill="white"/>
<path d="M69.4096 70.1544H69.8111C69.8575 70.1138 69.9007 70.0696 69.9403 70.0222C70.0424 69.8838 70.1369 69.7398 70.2231 69.591C70.3615 69.3549 70.4783 69.107 70.5723 68.8501C70.7027 68.492 70.8008 68.123 70.8656 67.7476C70.9545 67.2611 70.9977 66.7674 70.9948 66.2729V64.186H75.5339V70.1544H76.3823V72.6447H75.279V71.1526H70.5059V72.6447H69.4096V70.1544ZM72.1086 66.2624C72.1111 66.7545 72.069 67.2457 71.9829 67.7302C71.9217 68.1094 71.8211 68.4812 71.6826 68.8397C71.5806 69.0909 71.464 69.3359 71.3335 69.5736C71.2517 69.7335 71.1509 69.8829 71.0332 70.0188L70.911 70.144H74.4549V65.1703H72.1121L72.1086 66.2624Z" fill="white"/>
<path d="M87.0874 64.0887C87.5741 64.0771 88.0582 64.1636 88.5105 64.3429C88.9629 64.5222 89.3743 64.7906 89.72 65.1321C90.0571 65.4645 90.3247 65.8603 90.5073 66.2964C90.6899 66.7325 90.784 67.2003 90.784 67.6728C90.784 68.1453 90.6899 68.6132 90.5073 69.0493C90.3247 69.4854 90.0571 69.8811 89.72 70.2135C89.375 70.5549 88.9642 70.8233 88.5124 71.0026C88.0606 71.1819 87.5771 71.2684 87.0909 71.257C86.7437 71.2576 86.3981 71.2096 86.0643 71.1144C85.7776 71.0355 85.5028 70.9185 85.2473 70.7666C85.0452 70.6443 84.8527 70.5071 84.6712 70.3561C84.5421 70.2536 84.425 70.137 84.322 70.0083L84.2068 69.8727L84.9051 69.1771C84.9328 69.2173 84.9632 69.2556 84.9959 69.2919C85.0787 69.3854 85.1673 69.4737 85.2613 69.5562C85.395 69.6861 85.5411 69.8026 85.6977 69.904C85.891 70.0175 86.0974 70.1075 86.3123 70.1718C86.5691 70.2499 86.8362 70.2898 87.1048 70.2901C87.7209 70.3104 88.3224 70.1008 88.7913 69.7023C89.2434 69.2938 89.5457 68.7466 89.6502 68.1476H86.2075V67.1563H89.6502C89.5048 66.5855 89.1867 66.0731 88.7389 65.6886C88.284 65.3029 87.702 65.0985 87.1048 65.1147C86.8401 65.1138 86.5766 65.1513 86.3227 65.226C86.1091 65.2831 85.9046 65.3697 85.7152 65.4834C85.5664 65.5727 85.4251 65.6739 85.2927 65.786C85.1985 65.8646 85.112 65.9519 85.0343 66.0468L84.9575 66.1616L84.2592 65.466L84.3744 65.3234C84.4821 65.2066 84.5988 65.0984 84.7236 64.9999C84.9007 64.8476 85.0912 64.7114 85.2927 64.593C85.8518 64.2888 86.4783 64.1286 87.1153 64.1269L87.0874 64.0887Z" fill="white"/>
<path d="M100.209 64.1758V71.1319H99.1127V65.1809H96.5673V66.2626C96.5773 67.1032 96.5283 67.9435 96.4207 68.7773C96.3654 69.3107 96.2152 69.8301 95.9773 70.3111C95.831 70.6066 95.608 70.8576 95.3313 71.038C95.066 71.178 94.769 71.2475 94.4689 71.2398C94.3411 71.2384 94.2138 71.2256 94.0883 71.2015C93.983 71.1822 93.8791 71.1554 93.7776 71.1215L93.6693 71.0937V70.0503C93.845 70.109 94.0287 70.1406 94.214 70.1442C94.3903 70.1502 94.5639 70.1003 94.7098 70.0016C94.8846 69.8591 95.0204 69.6748 95.1044 69.4659C95.2557 69.0832 95.3476 68.6798 95.3767 68.2695C95.4417 67.6026 95.4708 66.9326 95.464 66.2626V64.1758H100.209Z" fill="white"/>
<path d="M105.858 70.1546H109.804V71.1528H104.748V64.1758H109.706V65.1705H105.865V67.0139H108.914V68.0086H105.865L105.858 70.1546Z" fill="white"/>
<path d="M114.947 64.1758V67.5599L118.089 64.1758H119.486L116.787 67.0626L119.685 71.1424H118.334L116.036 67.8591L114.94 69.052V71.1389H113.844V64.1758H114.947Z" fill="white"/>
<path d="M122.555 64.1758H127.827V65.1705H125.733V71.1424H124.65V65.1809H122.555V64.1758Z" fill="white"/>
<path d="M131.574 64.1755H134.367C134.677 64.1667 134.984 64.2201 135.272 64.3324C135.56 64.4448 135.822 64.6138 136.043 64.8294C136.258 65.0351 136.428 65.2817 136.544 65.5545C136.661 65.8273 136.721 66.1207 136.721 66.4171C136.721 66.7135 136.661 67.0069 136.544 67.2797C136.428 67.5525 136.258 67.7992 136.043 68.0049C135.821 68.2187 135.559 68.3863 135.271 68.498C134.983 68.6097 134.676 68.6631 134.367 68.6553H132.681V71.1421H131.585L131.574 64.1755ZM134.367 65.1702H132.681V67.6536H134.378C134.541 67.6577 134.703 67.629 134.855 67.5692C135.007 67.5095 135.145 67.4199 135.261 67.3058C135.496 67.0705 135.628 66.7523 135.628 66.4206C135.628 66.0889 135.496 65.7707 135.261 65.5354C135.145 65.4185 135.005 65.3266 134.851 65.2656C134.698 65.2045 134.533 65.1756 134.367 65.1807V65.1702Z" fill="white"/>
<path d="M141.525 70.2101C141.188 69.8779 140.92 69.4823 140.737 69.0461C140.554 68.61 140.46 68.142 140.46 67.6694C140.46 67.1967 140.554 66.7288 140.737 66.2927C140.92 65.8565 141.188 65.4609 141.525 65.1287C142.237 64.4615 143.178 64.0901 144.156 64.0901C145.134 64.0901 146.075 64.4615 146.787 65.1287C147.125 65.4609 147.392 65.8565 147.575 66.2927C147.758 66.7288 147.852 67.1967 147.852 67.6694C147.852 68.142 147.758 68.61 147.575 69.0461C147.392 69.4823 147.125 69.8779 146.787 70.2101C146.075 70.8773 145.134 71.2487 144.156 71.2487C143.178 71.2487 142.237 70.8773 141.525 70.2101ZM142.314 65.8347C141.881 66.2597 141.609 66.8215 141.545 67.4241C141.481 68.0266 141.629 68.6326 141.964 69.1385C142.299 69.6444 142.799 70.0188 143.38 70.1978C143.962 70.3768 144.587 70.3492 145.15 70.1197C145.713 69.8903 146.179 69.4733 146.467 68.9399C146.756 68.4065 146.85 67.7898 146.732 67.1952C146.615 66.6007 146.295 66.065 145.825 65.6799C145.355 65.2947 144.766 65.0839 144.158 65.0834C143.815 65.0765 143.475 65.1396 143.158 65.2689C142.841 65.3981 142.554 65.5906 142.314 65.8347Z" fill="white"/>
<path d="M157.639 64.1758V71.1319H156.542V68.0956H153.093V71.1319H151.996V64.1758H153.093V67.1147H156.542V64.1758H157.639Z" fill="white"/>
<path d="M167.824 64.1758V71.1319H166.727V68.0956H163.278V71.1319H162.181V64.1758H163.278V67.1147H166.727V64.1758H167.824Z" fill="white"/>
<path d="M175.062 71.1528H172.366V64.1758H173.463V66.6626H175.062C175.37 66.6543 175.677 66.7079 175.965 66.8202C176.252 66.9325 176.514 67.1013 176.734 67.3165C176.948 67.5227 177.117 67.7695 177.233 68.0422C177.349 68.3149 177.409 68.6081 177.409 68.9042C177.409 69.2004 177.349 69.4935 177.233 69.7662C177.117 70.039 176.948 70.2858 176.734 70.492C176.514 70.7079 176.253 70.8776 175.965 70.9911C175.678 71.1046 175.371 71.1596 175.062 71.1528ZM173.463 70.1546H175.062C175.225 70.1585 175.387 70.1297 175.539 70.07C175.691 70.0102 175.829 69.9207 175.945 69.8068C176.18 69.5715 176.312 69.2533 176.312 68.9216C176.312 68.5899 176.18 68.2717 175.945 68.0364C175.829 67.9222 175.691 67.8325 175.539 67.7727C175.387 67.7129 175.225 67.6843 175.062 67.6886H173.463V70.1546ZM179.398 64.1862V71.1424H178.295V64.1758L179.398 64.1862Z" fill="white"/>
<path d="M186.396 66.6104L188.142 64.1758H189.44L187.045 67.5078L189.639 71.1424H188.344L186.396 68.4051L184.447 71.1424H183.149L185.753 67.5182L183.351 64.1758H184.646L186.396 66.6104Z" fill="white"/>
<path d="M199.021 64.1758V67.5599L202.164 64.1758H203.56L200.865 67.0626L203.759 71.1424H202.408L200.114 67.8591L199.021 69.0625V71.1493H197.925V64.1758H199.021Z" fill="white"/>
<path d="M207.68 70.2101C207.343 69.8779 207.075 69.4823 206.892 69.0461C206.709 68.61 206.615 68.142 206.615 67.6694C206.615 67.1967 206.709 66.7288 206.892 66.2927C207.075 65.8565 207.343 65.4609 207.68 65.1287C208.393 64.4615 209.334 64.0901 210.311 64.0901C211.289 64.0901 212.23 64.4615 212.942 65.1287C213.279 65.4616 213.545 65.8575 213.727 66.2935C213.91 66.7295 214.003 67.1971 214.003 67.6694C214.003 68.1416 213.91 68.6092 213.727 69.0453C213.545 69.4813 213.279 69.8772 212.942 70.2101C212.23 70.8773 211.289 71.2487 210.311 71.2487C209.334 71.2487 208.393 70.8773 207.68 70.2101ZM208.466 65.8347C208.032 66.2601 207.759 66.8226 207.695 67.4261C207.63 68.0296 207.779 68.6366 208.114 69.1433C208.449 69.6501 208.95 70.0252 209.532 70.2045C210.114 70.3838 210.741 70.3562 211.305 70.1264C211.869 69.8967 212.335 69.479 212.624 68.9447C212.913 68.4105 213.007 67.7928 212.889 67.1974C212.772 66.6019 212.45 66.0655 211.98 65.68C211.509 65.2944 210.919 65.0835 210.31 65.0834C209.967 65.0765 209.627 65.1396 209.31 65.2689C208.993 65.3981 208.706 65.5906 208.466 65.8347Z" fill="white"/>
<path d="M221.793 67.5704L224.489 64.1862H225.442V71.1424H224.346V66.0818L221.793 69.2642L219.248 66.0818V71.1528H218.152V64.1758H219.098L221.793 67.5704Z" fill="white"/>
<path d="M235.628 64.1758V71.1319H234.528V65.1809H231.082V71.1528H229.985V64.1758H235.628Z" fill="white"/>
<path d="M240.83 70.2101C240.493 69.8772 240.227 69.4813 240.044 69.0453C239.862 68.6092 239.769 68.1416 239.769 67.6694C239.769 67.1971 239.862 66.7295 240.044 66.2935C240.227 65.8575 240.493 65.4616 240.83 65.1287C241.542 64.4615 242.483 64.0901 243.461 64.0901C244.438 64.0901 245.379 64.4615 246.091 65.1287C246.429 65.4609 246.697 65.8565 246.88 66.2927C247.063 66.7288 247.157 67.1967 247.157 67.6694C247.157 68.142 247.063 68.61 246.88 69.0461C246.697 69.4823 246.429 69.8779 246.091 70.2101C245.379 70.8773 244.438 71.2487 243.461 71.2487C242.483 71.2487 241.542 70.8773 240.83 70.2101ZM241.619 65.8347C241.184 66.2601 240.912 66.8226 240.847 67.4261C240.783 68.0296 240.931 68.6366 241.266 69.1433C241.602 69.6501 242.103 70.0252 242.685 70.2045C243.267 70.3838 243.893 70.3562 244.457 70.1264C245.021 69.8967 245.487 69.479 245.776 68.9447C246.065 68.4105 246.159 67.7928 246.042 67.1974C245.924 66.6019 245.603 66.0655 245.132 65.68C244.662 65.2944 244.072 65.0835 243.462 65.0834C243.12 65.0765 242.779 65.1396 242.462 65.2689C242.145 65.3981 241.858 65.5906 241.619 65.8347Z" fill="white"/>
<path d="M256.944 64.1758V71.1319H255.847V68.0956H252.401V71.1319H251.301V64.1758H252.401V67.1147H255.847V64.1758H256.944Z" fill="white"/>
<path d="M262.568 70.1546H266.514V71.1528H261.486V64.1758H266.434V65.1705H262.568V67.0139H265.62V68.0086H262.568V70.1546Z" fill="white"/>
<path d="M276.217 64.1758V71.1319H275.138V68.0956H271.688V71.1319H270.592V64.1758H271.688V67.1147H275.138V64.1758H276.217Z" fill="white"/>
<path d="M279.959 64.1758H285.263V65.1705H283.168V71.1424H282.072V65.1809H279.977L279.959 64.1758Z" fill="white"/>
<path d="M289.258 70.2101C288.922 69.8772 288.655 69.4813 288.473 69.0453C288.291 68.6092 288.197 68.1416 288.197 67.6694C288.197 67.1971 288.291 66.7295 288.473 66.2935C288.655 65.8575 288.922 65.4616 289.258 65.1287C289.97 64.4615 290.911 64.0901 291.889 64.0901C292.867 64.0901 293.808 64.4615 294.52 65.1287C294.858 65.4609 295.125 65.8565 295.308 66.2927C295.491 66.7288 295.585 67.1967 295.585 67.6694C295.585 68.142 295.491 68.61 295.308 69.0461C295.125 69.4823 294.858 69.8779 294.52 70.2101C293.808 70.8773 292.867 71.2487 291.889 71.2487C290.911 71.2487 289.97 70.8773 289.258 70.2101ZM290.047 65.8347C289.613 66.2601 289.34 66.8226 289.276 67.4261C289.212 68.0296 289.36 68.6366 289.695 69.1433C290.03 69.6501 290.532 70.0252 291.114 70.2045C291.696 70.3838 292.322 70.3562 292.886 70.1264C293.45 69.8967 293.916 69.479 294.205 68.9447C294.494 68.4105 294.588 67.7928 294.47 67.1974C294.353 66.6019 294.031 66.0655 293.561 65.68C293.09 65.2944 292.5 65.0835 291.891 65.0834C291.548 65.0765 291.208 65.1396 290.891 65.2689C290.574 65.3981 290.287 65.5906 290.047 65.8347Z" fill="white"/>
<path d="M302.722 71.1525H299.73V64.1755H302.572C303.109 64.1645 303.63 64.3643 304.021 64.732C304.31 64.9786 304.509 65.314 304.586 65.6855C304.663 66.0569 304.614 66.4433 304.447 66.784C304.365 66.9684 304.246 67.1341 304.098 67.271L303.916 67.4101C303.941 67.4101 303.979 67.4449 304.024 67.4762C304.07 67.5075 304.157 67.5736 304.283 67.6744C304.403 67.777 304.509 67.8938 304.601 68.0222C304.704 68.1707 304.787 68.332 304.848 68.5022C304.925 68.6961 304.964 68.9026 304.964 69.1109C304.965 69.3826 304.909 69.6515 304.798 69.8998C304.687 70.1481 304.525 70.37 304.321 70.5508C303.888 70.9523 303.314 71.1683 302.722 71.1525ZM302.572 65.132H300.826V67.024H302.572C302.824 67.024 303.065 66.9244 303.243 66.7469C303.422 66.5695 303.522 66.3289 303.522 66.078C303.522 65.8271 303.422 65.5865 303.243 65.409C303.065 65.2316 302.824 65.132 302.572 65.132ZM300.826 70.203H302.722C302.878 70.2116 303.034 70.1884 303.181 70.1348C303.327 70.0813 303.461 69.9985 303.575 69.8916C303.688 69.7846 303.779 69.6558 303.84 69.5129C303.902 69.37 303.934 69.216 303.934 69.0604C303.934 68.9049 303.902 68.7509 303.84 68.608C303.779 68.4651 303.688 68.3362 303.575 68.2293C303.461 68.1224 303.327 68.0396 303.181 67.9861C303.034 67.9325 302.878 67.9093 302.722 67.9179H300.826V70.203Z" fill="white"/>
</svg>
