<svg width="626" height="147" viewBox="0 0 626 147" fill="none" xmlns="http://www.w3.org/2000/svg">
<path d="M624.221 113.551H31.0242C30.3237 113.551 29.7558 114.116 29.7558 114.814V145.736C29.7558 146.434 30.3237 147 31.0242 147H624.221C624.922 147 625.489 146.434 625.489 145.736V114.814C625.489 114.116 624.922 113.551 624.221 113.551Z" fill="#0080FF"/>
<path d="M244.23 55.592C240.902 51.2987 237.492 48.0765 234.001 45.9254C235.351 44.7537 236.627 43.499 237.82 42.1688C239.122 40.7354 240.547 38.9964 242.068 36.9313L268.207 3.23746C268.426 2.94297 268.571 2.60075 268.631 2.23922C268.69 1.87769 268.662 1.50729 268.548 1.15877C268.33 0.39794 267.628 0.017526 266.462 0.017526H249.754C248.879 -0.0515609 248.001 0.0857534 247.19 0.418319C246.648 0.775347 246.184 1.23741 245.826 1.77694L222.667 32.6245C221.813 33.731 220.867 34.7628 219.837 35.7085C218.962 36.4993 217.959 37.1356 216.87 37.5902C215.664 38.0688 214.393 38.3642 213.099 38.4665C211.66 38.5956 209.866 38.6635 207.705 38.6635H188.719V2.97253C188.719 1.00253 187.726 0.017526 185.739 0.017526H171.186C169.122 0.017526 168.09 1.00253 168.09 2.97253V91.0452C168.09 93.0152 169.122 94.0002 171.186 94.0002H185.739C187.717 94.0002 188.705 93.0152 188.705 91.0452V54.2469H209.164C213.297 54.2469 216.395 54.6726 218.459 55.524C220.776 56.5764 222.775 58.2161 224.256 60.2792L249.051 92.2068C249.41 92.7461 249.874 93.2081 250.415 93.5654C251.18 93.892 252.013 94.0295 252.843 93.9662H270.09C271.454 93.9662 272.136 93.4975 272.245 92.5533C272.38 91.8346 272.236 91.0917 271.842 90.4746L244.23 55.592Z" fill="#1E2023"/>
<path d="M369.491 8.00618C366.182 5.02412 362.171 2.92138 357.83 1.89238C353.07 0.642445 347.275 0.0174789 340.447 0.0174789H279.671C277.684 0.0174789 276.691 1.00248 276.691 2.97248V16.1239C276.691 18.0939 277.68 19.0789 279.657 19.0789H339.635C342.559 19.0168 345.478 19.3111 348.33 19.9553C350.391 20.4066 352.282 21.4286 353.786 22.9035C355.243 24.4918 356.244 26.4418 356.684 28.5485C357.329 31.4791 357.624 34.4752 357.564 37.4747V38.154H309.902V55.8704H357.564V56.5497C357.624 59.5178 357.329 62.4824 356.684 65.3808C356.231 67.4608 355.231 69.3833 353.786 70.9511C352.282 72.426 350.391 73.448 348.33 73.8993C345.478 74.5435 342.559 74.8378 339.635 74.7757H279.671C277.693 74.7757 276.705 75.8037 276.705 77.8597V91.0451C276.705 93.0152 277.693 94.0002 279.671 94.0002H340.447C347.266 94.0002 353.061 93.3503 357.83 92.0505C362.168 90.9808 366.174 88.8596 369.491 85.8756C372.614 82.8681 374.891 79.0969 376.092 74.9387C377.484 70.4643 378.179 65.0049 378.179 58.5605V35.4639C378.179 29.0195 377.484 23.5375 376.092 19.0178C374.903 14.8324 372.626 11.0339 369.491 8.00618V8.00618Z" fill="#1E2023"/>
<path d="M466.444 10.2071C464.203 6.09052 461.93 3.35969 459.625 2.01465C457.32 0.669618 454.428 0.00389302 450.95 0.0174792H443.135C440.475 -0.0329169 437.856 0.674095 435.586 2.05541C433.431 3.41403 431.231 6.14486 428.985 10.2479L384.781 90.8957C384.576 91.2174 384.44 91.5777 384.381 91.954C384.323 92.3304 384.342 92.7147 384.44 93.0831C384.665 93.6673 385.312 93.9594 386.39 93.9594H404.046C405.573 93.9594 406.605 93.3775 407.142 92.2136L446.095 20.0164C446.229 19.7369 446.44 19.5007 446.703 19.3349C446.966 19.1691 447.27 19.0804 447.582 19.0789H448.264C448.602 19.0388 448.945 19.1083 449.241 19.2771C449.537 19.4459 449.77 19.7051 449.907 20.0164L489.392 92.2407C489.663 92.7761 490.055 93.2413 490.538 93.5994C491.138 93.9105 491.813 94.0493 492.488 94.0002H509.469C510.635 94.0002 511.337 93.708 511.556 93.1238C511.658 92.7519 511.681 92.3628 511.623 91.9815C511.565 91.6001 511.429 91.235 511.221 90.9093L466.444 10.2071Z" fill="#1E2023"/>
<path d="M625.06 90.4949L597.434 55.5919C594.106 51.2987 590.696 48.0765 587.205 45.9253C588.562 44.7543 589.844 43.4996 591.044 42.1687C592.347 40.7354 593.772 38.9963 595.293 36.9312L621.418 3.23742C621.638 2.94368 621.784 2.60142 621.844 2.23959C621.903 1.87776 621.874 1.50702 621.759 1.15872C621.532 0.397896 620.836 0.0174818 619.672 0.0174818H602.958C602.085 -0.0518134 601.209 0.0855281 600.4 0.418275C599.859 0.775591 599.395 1.23761 599.036 1.7769L575.871 32.6244C575.019 33.7325 574.072 34.7644 573.04 35.7085C572.167 36.5007 571.164 37.1373 570.074 37.5902C568.868 38.0688 567.597 38.3642 566.303 38.4665C564.866 38.5978 563.07 38.6635 560.915 38.6635H541.909V2.97248C541.909 1.00248 540.923 0.0174818 538.95 0.0174818H524.397C522.351 0.0174818 521.294 1.00248 521.294 2.97248V91.0452C521.294 93.0152 522.324 94.0002 524.397 94.0002H538.95C540.918 94.0002 541.905 93.0152 541.909 91.0452V54.2469H562.368C566.5 54.2469 569.601 54.6726 571.67 55.524C573.984 56.5768 575.981 58.2165 577.459 60.2792L602.255 92.2068C602.614 92.7461 603.078 93.2081 603.619 93.5654C604.384 93.892 605.217 94.0295 606.047 93.9662H623.294C624.657 93.9662 625.339 93.4975 625.448 92.5532C625.586 91.8428 625.447 91.1071 625.06 90.4949V90.4949Z" fill="#1E2023"/>
<path d="M107.621 34.4721V18.223H67.386C64.3871 18.1687 61.3925 18.472 58.466 19.1265C56.2657 19.6249 54.2459 20.7179 52.6285 22.2853C51.1007 23.9614 50.0383 26.0055 49.5461 28.2157C48.8713 31.2226 48.5599 34.299 48.6186 37.3796V56.6584C48.561 59.7449 48.8677 62.8275 49.5324 65.8427C50.0066 68.0775 51.0706 70.1457 52.6148 71.8342C54.2303 73.4143 56.2569 74.513 58.466 75.0066C61.4036 75.663 64.4102 75.9618 67.42 75.8965H107.655V60.3743H154.71V77.1057H130.385L130.467 77.785C130.467 77.8665 130.467 77.948 130.514 78.0295C130.562 78.1111 130.514 78.179 130.514 78.2673V91.5954C130.514 93.2597 129.832 93.973 128.128 93.973H66.5949C59.7754 93.973 53.8765 93.2937 49.1369 92.0709C44.8398 91.0646 40.8681 88.9918 37.5914 86.0454C34.5006 83.0546 32.2545 79.306 31.0788 75.1764C29.6808 70.6862 28.9852 65.1362 28.9852 58.6964V55.3677H0.5V38.6363H28.9852V35.3009C28.9852 28.8542 29.6671 23.3382 31.0788 18.8955C32.2632 14.7855 34.5087 11.0566 37.5914 8.0809C40.8769 5.12866 44.8424 3.02877 49.1369 1.9671C53.8901 0.69679 59.7617 0.0174789 66.5949 0.0174789H128.162C129.805 0.0174789 130.548 0.744342 130.548 2.39507V15.7231C130.555 16.1331 130.495 16.5414 130.371 16.9323L130.105 17.7407H154.71V34.4721H107.621Z" fill="#0080FF"/>
<path d="M67.3314 124.162C68.0048 124.158 68.6753 124.249 69.3227 124.433C69.8774 124.584 70.4078 124.813 70.898 125.113C71.278 125.345 71.6424 125.601 71.9892 125.88C72.2393 126.083 72.4679 126.31 72.6711 126.56L72.8825 126.824L71.5186 128.183L71.3481 127.966C71.1933 127.79 71.027 127.624 70.8503 127.47C70.5953 127.231 70.3139 127.021 70.0115 126.845C69.6406 126.644 69.2498 126.483 68.8454 126.363C68.353 126.211 67.84 126.135 67.3246 126.138C66.3216 126.141 65.3418 126.439 64.5083 126.995C63.6748 127.55 63.0248 128.339 62.6401 129.262C62.2553 130.185 62.1529 131.2 62.3457 132.18C62.5385 133.161 63.018 134.063 63.7239 134.772C64.1937 135.246 64.7565 135.619 65.3772 135.867C65.9978 136.114 66.6631 136.232 67.3314 136.213C67.8491 136.215 68.3641 136.14 68.859 135.988C69.2871 135.868 69.6958 135.687 70.0729 135.452C70.366 135.261 70.6484 135.055 70.9185 134.834C71.1151 134.67 71.2997 134.493 71.4709 134.304L71.6209 134.066L72.9848 135.425C72.9132 135.528 72.8358 135.628 72.7529 135.723C72.6438 135.846 72.4165 136.072 72.071 136.403C71.713 136.71 71.3298 136.988 70.9253 137.232C70.4267 137.511 69.8953 137.728 69.3432 137.877C68.6932 138.073 68.0174 138.172 67.3382 138.169C66.3875 138.192 65.442 138.023 64.5584 137.673C63.6748 137.323 62.8714 136.798 62.1963 136.131C61.5396 135.481 61.0184 134.708 60.6628 133.856C60.3072 133.004 60.1241 132.091 60.1241 131.169C60.1241 130.246 60.3072 129.333 60.6628 128.481C61.0184 127.63 61.5396 126.857 62.1963 126.206C62.87 125.539 63.6721 125.013 64.5545 124.662C65.4368 124.311 66.3814 124.14 67.3314 124.162V124.162Z" fill="white"/>
<path d="M82.8117 124.331V130.941L88.9493 124.331H91.6771L86.4124 129.97L92.0658 137.938H89.4266L84.9394 131.525L82.7981 133.855V137.931H80.6567V124.331H82.8117Z" fill="white"/>
<path d="M109.926 124.331V137.918H107.778V126.295H102.793V128.407C102.812 130.049 102.717 131.69 102.507 133.319C102.396 134.359 102.106 135.373 101.647 136.314C101.361 136.893 100.923 137.384 100.379 137.734C99.8636 138.009 99.2854 138.145 98.7013 138.128C98.4517 138.126 98.2029 138.101 97.9579 138.053C97.7502 138.015 97.5451 137.963 97.3442 137.897L97.1396 137.843V135.805C97.4826 135.92 97.8415 135.982 98.2034 135.988C98.5476 135.999 98.8865 135.902 99.1718 135.71C99.511 135.431 99.7737 135.071 99.9356 134.664C100.238 133.918 100.418 133.129 100.468 132.327C100.597 131.024 100.656 129.716 100.645 128.407V124.331H109.926Z" fill="white"/>
<path d="M117.244 137.958L122.897 124.372H125.045L130.698 137.958H128.462L126.995 134.358H120.947L119.48 137.958H117.244ZM123.974 126.777L121.731 132.415H126.218L123.974 126.777Z" fill="white"/>
<path d="M136.065 136.009H136.85C136.94 135.929 137.025 135.843 137.102 135.751C137.302 135.48 137.486 135.199 137.654 134.908C137.925 134.447 138.153 133.963 138.336 133.461C138.591 132.762 138.783 132.041 138.909 131.308C139.083 130.358 139.167 129.393 139.162 128.428V124.352H148.027V136.009H149.684V140.873H147.529V137.958H138.207V140.873H136.065V136.009ZM141.337 128.407C141.342 129.368 141.26 130.328 141.091 131.274C140.972 132.015 140.775 132.741 140.505 133.441C140.306 133.932 140.078 134.41 139.823 134.874C139.663 135.187 139.466 135.479 139.237 135.744L138.998 135.988H145.92V126.274H141.344L141.337 128.407Z" fill="white"/>
<path d="M170.593 124.162C171.543 124.139 172.489 124.308 173.372 124.658C174.256 125.008 175.059 125.533 175.735 126.2C176.393 126.849 176.916 127.622 177.272 128.473C177.629 129.325 177.813 130.239 177.813 131.162C177.813 132.085 177.629 132.998 177.272 133.85C176.916 134.702 176.393 135.475 175.735 136.124C175.061 136.791 174.258 137.315 173.376 137.665C172.494 138.016 171.549 138.185 170.6 138.162C169.921 138.163 169.246 138.07 168.595 137.884C168.035 137.73 167.498 137.501 166.999 137.204C166.604 136.966 166.228 136.698 165.874 136.403C165.621 136.203 165.393 135.975 165.192 135.723L164.967 135.459L166.331 134.1C166.385 134.178 166.444 134.253 166.508 134.324C166.67 134.507 166.843 134.679 167.026 134.84C167.287 135.094 167.573 135.322 167.879 135.52C168.256 135.741 168.659 135.917 169.079 136.043C169.581 136.195 170.102 136.273 170.627 136.274C171.83 136.313 173.005 135.904 173.921 135.126C174.804 134.328 175.394 133.259 175.598 132.089H168.874V130.153H175.598C175.314 129.038 174.693 128.037 173.818 127.286C172.93 126.533 171.793 126.134 170.627 126.166C170.11 126.164 169.595 126.237 169.099 126.383C168.682 126.494 168.283 126.664 167.913 126.886C167.622 127.06 167.346 127.258 167.087 127.477C166.904 127.63 166.735 127.801 166.583 127.986L166.433 128.21L165.069 126.852L165.294 126.573C165.504 126.345 165.732 126.134 165.976 125.941C166.322 125.644 166.694 125.378 167.087 125.147C168.179 124.552 169.403 124.24 170.647 124.236L170.593 124.162Z" fill="white"/>
<path d="M196.22 124.331V137.918H194.079V126.295H189.108V128.407C189.127 130.049 189.031 131.69 188.821 133.319C188.713 134.361 188.42 135.375 187.955 136.314C187.67 136.891 187.234 137.382 186.694 137.734C186.175 138.008 185.595 138.143 185.009 138.128C184.76 138.126 184.511 138.101 184.266 138.053C184.06 138.016 183.857 137.963 183.659 137.897L183.448 137.843V135.805C183.791 135.92 184.149 135.981 184.511 135.988C184.856 136 185.195 135.903 185.48 135.71C185.821 135.432 186.086 135.072 186.25 134.664C186.546 133.916 186.725 133.128 186.782 132.327C186.909 131.024 186.966 129.716 186.953 128.407V124.331H196.22Z" fill="white"/>
<path d="M207.254 136.009H214.961V137.958H205.086V124.331H214.77V126.274H207.268V129.875H213.222V131.817H207.268L207.254 136.009Z" fill="white"/>
<path d="M225.006 124.331V130.941L231.143 124.331H233.871L228.6 129.97L234.26 137.938H231.621L227.133 131.525L224.992 133.855V137.931H222.851V124.331H225.006Z" fill="white"/>
<path d="M239.865 124.331H250.163V126.274H246.071V137.938H243.957V126.295H239.865V124.331Z" fill="white"/>
<path d="M257.48 124.331H262.936C263.54 124.314 264.141 124.418 264.703 124.638C265.266 124.857 265.778 125.187 266.209 125.609C266.628 126.01 266.961 126.492 267.188 127.025C267.415 127.558 267.533 128.131 267.533 128.71C267.533 129.289 267.415 129.862 267.188 130.394C266.961 130.927 266.628 131.409 266.209 131.811C265.776 132.228 265.263 132.556 264.701 132.774C264.139 132.992 263.539 133.096 262.936 133.081H259.642V137.938H257.501L257.48 124.331ZM262.936 126.274H259.642V131.125H262.956C263.275 131.132 263.592 131.076 263.889 130.96C264.185 130.843 264.455 130.668 264.682 130.445C265.14 129.986 265.398 129.364 265.398 128.716C265.398 128.069 265.14 127.447 264.682 126.988C264.454 126.759 264.181 126.58 263.881 126.46C263.581 126.341 263.259 126.285 262.936 126.295V126.274Z" fill="white"/>
<path d="M276.916 136.117C276.257 135.469 275.734 134.696 275.376 133.844C275.019 132.992 274.835 132.078 274.835 131.155C274.835 130.232 275.019 129.318 275.376 128.466C275.734 127.614 276.257 126.842 276.916 126.193C278.307 124.89 280.145 124.164 282.055 124.164C283.964 124.164 285.802 124.89 287.193 126.193C287.852 126.842 288.376 127.614 288.733 128.466C289.09 129.318 289.274 130.232 289.274 131.155C289.274 132.078 289.09 132.992 288.733 133.844C288.376 134.696 287.852 135.469 287.193 136.117C285.802 137.42 283.964 138.146 282.055 138.146C280.145 138.146 278.307 137.42 276.916 136.117V136.117ZM278.457 127.572C277.61 128.402 277.079 129.499 276.954 130.676C276.829 131.853 277.119 133.036 277.773 134.024C278.427 135.013 279.405 135.744 280.54 136.093C281.675 136.443 282.896 136.389 283.996 135.941C285.096 135.493 286.005 134.678 286.569 133.637C287.132 132.595 287.315 131.39 287.087 130.229C286.858 129.068 286.231 128.022 285.314 127.269C284.397 126.517 283.246 126.105 282.058 126.104C281.389 126.091 280.724 126.214 280.105 126.467C279.486 126.719 278.925 127.095 278.457 127.572V127.572Z" fill="white"/>
<path d="M308.388 124.331V137.918H306.247V131.987H299.509V137.918H297.368V124.331H299.509V130.072H306.247V124.331H308.388Z" fill="white"/>
<path d="M328.281 124.331V137.918H326.139V131.987H319.402V137.918H317.26V124.331H319.402V130.072H326.139V124.331H328.281Z" fill="white"/>
<path d="M342.418 137.958H337.153V124.331H339.294V129.188H342.418C343.02 129.172 343.62 129.277 344.181 129.496C344.742 129.716 345.254 130.045 345.684 130.466C346.101 130.868 346.432 131.35 346.659 131.883C346.885 132.416 347.001 132.988 347.001 133.567C347.001 134.145 346.885 134.718 346.659 135.25C346.432 135.783 346.101 136.265 345.684 136.668C345.254 137.089 344.743 137.421 344.182 137.643C343.621 137.864 343.021 137.972 342.418 137.958ZM339.294 136.009H342.418C342.736 136.016 343.053 135.96 343.349 135.843C343.646 135.727 343.916 135.552 344.143 135.329C344.601 134.87 344.859 134.248 344.859 133.601C344.859 132.953 344.601 132.331 344.143 131.872C343.916 131.649 343.646 131.473 343.35 131.357C343.053 131.24 342.736 131.184 342.418 131.192H339.294V136.009ZM350.887 124.352V137.938H348.733V124.331L350.887 124.352Z" fill="white"/>
<path d="M364.554 129.087L367.964 124.331H370.5L365.822 130.839L370.889 137.938H368.359L364.554 132.592L360.748 137.938H358.212L363.299 130.86L358.607 124.331H361.137L364.554 129.087Z" fill="white"/>
<path d="M389.213 124.331V130.941L395.351 124.331H398.079L392.814 129.97L398.467 137.938H395.828L391.348 131.525L389.213 133.876V137.952H387.072V124.331H389.213Z" fill="white"/>
<path d="M406.126 136.117C405.466 135.469 404.943 134.696 404.586 133.844C404.229 132.992 404.045 132.078 404.045 131.155C404.045 130.232 404.229 129.318 404.586 128.466C404.943 127.614 405.466 126.842 406.126 126.193C407.517 124.89 409.355 124.164 411.264 124.164C413.174 124.164 415.011 124.89 416.403 126.193C417.059 126.843 417.581 127.616 417.936 128.468C418.292 129.319 418.475 130.233 418.475 131.155C418.475 132.077 418.292 132.991 417.936 133.842C417.581 134.694 417.059 135.467 416.403 136.117C415.011 137.42 413.174 138.146 411.264 138.146C409.355 138.146 407.517 137.42 406.126 136.117ZM407.66 127.572C406.811 128.403 406.279 129.501 406.153 130.68C406.028 131.859 406.317 133.044 406.972 134.034C407.626 135.024 408.606 135.756 409.743 136.106C410.879 136.457 412.103 136.403 413.204 135.954C414.305 135.505 415.216 134.689 415.78 133.646C416.345 132.602 416.528 131.396 416.299 130.233C416.069 129.07 415.441 128.023 414.522 127.269C413.604 126.516 412.451 126.105 411.261 126.104C410.592 126.091 409.927 126.214 409.308 126.467C408.688 126.719 408.128 127.095 407.66 127.572V127.572Z" fill="white"/>
<path d="M433.69 130.961L438.955 124.352H440.817V137.938H438.675V128.054L433.69 134.27L428.719 128.054V137.958H426.577V124.331H428.426L433.69 130.961Z" fill="white"/>
<path d="M460.709 124.331V137.918H458.561V126.295H451.83V137.958H449.689V124.331H460.709Z" fill="white"/>
<path d="M470.87 136.117C470.214 135.467 469.692 134.694 469.337 133.842C468.981 132.991 468.798 132.077 468.798 131.155C468.798 130.233 468.981 129.319 469.337 128.468C469.692 127.616 470.214 126.843 470.87 126.193C472.262 124.89 474.099 124.164 476.009 124.164C477.918 124.164 479.756 124.89 481.147 126.193C481.807 126.842 482.33 127.614 482.687 128.466C483.044 129.318 483.228 130.232 483.228 131.155C483.228 132.078 483.044 132.992 482.687 133.844C482.33 134.696 481.807 135.469 481.147 136.117C479.756 137.42 477.918 138.146 476.009 138.146C474.099 138.146 472.262 137.42 470.87 136.117V136.117ZM472.412 127.572C471.563 128.403 471.03 129.501 470.905 130.68C470.779 131.859 471.069 133.044 471.723 134.034C472.378 135.024 473.357 135.756 474.494 136.106C475.631 136.457 476.854 136.403 477.956 135.954C479.057 135.505 479.968 134.689 480.532 133.646C481.096 132.602 481.279 131.396 481.05 130.233C480.821 129.07 480.193 128.023 479.274 127.269C478.355 126.516 477.202 126.105 476.012 126.104C475.343 126.091 474.679 126.214 474.059 126.467C473.44 126.719 472.879 127.095 472.412 127.572Z" fill="white"/>
<path d="M502.342 124.331V137.918H500.201V131.987H493.47V137.918H491.322V124.331H493.47V130.072H500.201V124.331H502.342Z" fill="white"/>
<path d="M513.329 136.009H521.035V137.958H511.215V124.331H520.878V126.274H513.329V129.875H519.289V131.817H513.329V136.009Z" fill="white"/>
<path d="M539.986 124.331V137.918H537.879V131.987H531.141V137.918H529V124.331H531.141V130.072H537.879V124.331H539.986Z" fill="white"/>
<path d="M547.297 124.331H557.655V126.274H553.564V137.938H551.422V126.295H547.331L547.297 124.331Z" fill="white"/>
<path d="M565.457 136.117C564.8 135.467 564.279 134.694 563.924 133.842C563.568 132.991 563.385 132.077 563.385 131.155C563.385 130.233 563.568 129.319 563.924 128.468C564.279 127.616 564.8 126.843 565.457 126.193C566.848 124.89 568.686 124.164 570.596 124.164C572.505 124.164 574.343 124.89 575.734 126.193C576.393 126.842 576.917 127.614 577.274 128.466C577.631 129.318 577.815 130.232 577.815 131.155C577.815 132.078 577.631 132.992 577.274 133.844C576.917 134.696 576.393 135.469 575.734 136.117C574.343 137.42 572.505 138.146 570.596 138.146C568.686 138.146 566.848 137.42 565.457 136.117ZM566.998 127.572C566.15 128.403 565.617 129.501 565.492 130.68C565.366 131.859 565.655 133.044 566.31 134.034C566.965 135.024 567.944 135.756 569.081 136.106C570.218 136.457 571.441 136.403 572.542 135.954C573.644 135.505 574.554 134.689 575.119 133.646C575.683 132.602 575.866 131.396 575.637 130.233C575.407 129.07 574.78 128.023 573.861 127.269C572.942 126.516 571.789 126.105 570.599 126.104C569.93 126.091 569.265 126.214 568.646 126.467C568.027 126.719 567.466 127.095 566.998 127.572V127.572Z" fill="white"/>
<path d="M591.753 137.958H585.909V124.331H591.46C592.51 124.31 593.526 124.7 594.29 125.418C594.855 125.9 595.243 126.555 595.394 127.281C595.545 128.006 595.449 128.761 595.122 129.426C594.962 129.786 594.73 130.11 594.44 130.377L594.086 130.649C594.133 130.649 594.208 130.717 594.297 130.778C594.386 130.839 594.556 130.968 594.802 131.165C595.036 131.365 595.244 131.594 595.422 131.845C595.624 132.134 595.787 132.45 595.906 132.782C596.056 133.161 596.132 133.564 596.131 133.971C596.135 134.501 596.025 135.027 595.808 135.512C595.592 135.997 595.274 136.43 594.877 136.783C594.03 137.567 592.909 137.989 591.753 137.958ZM591.46 126.199H588.05V129.895H591.46C591.952 129.895 592.424 129.7 592.772 129.354C593.12 129.007 593.315 128.537 593.315 128.047C593.315 127.557 593.12 127.087 592.772 126.741C592.424 126.394 591.952 126.199 591.46 126.199V126.199ZM588.05 136.104H591.753C592.058 136.121 592.363 136.075 592.649 135.971C592.936 135.866 593.198 135.704 593.419 135.496C593.641 135.287 593.817 135.035 593.938 134.756C594.058 134.477 594.121 134.176 594.121 133.872C594.121 133.568 594.058 133.268 593.938 132.989C593.817 132.71 593.641 132.458 593.419 132.249C593.198 132.04 592.936 131.878 592.649 131.774C592.363 131.669 592.058 131.624 591.753 131.641H588.05V136.104Z" fill="white"/>
</svg>
