<svg xmlns="http://www.w3.org/2000/svg" viewBox="0 0 299.97 299.97"><defs><style>.cls-1{fill:#fff;}.cls-2{fill:#0080ff;}</style></defs><g id="Layer_2" data-name="Layer 2"><g id="Слой_1" data-name="Слой 1"><circle class="cls-1" cx="149.98" cy="149.98" r="149.98"/><path class="cls-2" d="M194,131.54V107.62H135A55.13,55.13,0,0,0,121.9,109a18,18,0,0,0-8.56,4.65,19.16,19.16,0,0,0-4.52,8.73,56.89,56.89,0,0,0-1.34,13.44V164.2a58,58,0,0,0,1.34,13.52,18.9,18.9,0,0,0,4.52,8.82,17.81,17.81,0,0,0,8.56,4.67A54.56,54.56,0,0,0,135,192.52h59V169.67h69.05V194.3H227.38l.12,1c0,.12.05.24.07.37s.05.21.05.34v19.62c0,2.45-1,3.5-3.5,3.5H133.84c-10,0-18.65-1-25.6-2.8a38.37,38.37,0,0,1-16.93-8.87,36,36,0,0,1-9.55-16c-2.05-6.61-3.07-14.78-3.07-24.26V162.3H36.92V137.67H78.69v-4.91c0-9.49,1-17.61,3.07-24.15a36,36,0,0,1,9.55-15.92,39.47,39.47,0,0,1,16.93-9c7-1.9,15.58-2.87,25.6-2.87h90.28c2.41,0,3.5,1.07,3.5,3.5v19.62a5.57,5.57,0,0,1-.26,1.78l-.39,1.19h36.08v24.63Z"/></g></g></svg>