<svg xmlns="http://www.w3.org/2000/svg" viewBox="0 0 300 226.56"><defs><style>.cls-1{fill:#fff;}.cls-2{fill:#0080ff;}</style></defs><g id="Layer_2" data-name="Layer 2"><g id="Слой_1" data-name="Слой 1"><rect class="cls-1" width="300" height="226.56"/><path class="cls-2" d="M195.67,94.14V69.31H134.48a56.72,56.72,0,0,0-13.62,1.39A18.77,18.77,0,0,0,112,75.52a19.85,19.85,0,0,0-4.69,9.06,59.3,59.3,0,0,0-1.39,14V128a60.34,60.34,0,0,0,1.39,14,19.58,19.58,0,0,0,4.69,9.16,18.46,18.46,0,0,0,8.89,4.84,56.72,56.72,0,0,0,13.62,1.37h61.19V133.71h71.66v25.56h-37l.12,1.06c0,.12.05.25.08.38s0,.22,0,.35v20.36c0,2.55-1.09,3.64-3.63,3.64H133.25c-10.43,0-19.36-1-26.58-2.9A39.89,39.89,0,0,1,89.11,173a37.39,37.39,0,0,1-9.91-16.63C77.08,149.45,76,141,76,131.13v-5.07H32.67V100.5H76V95.4c0-9.84,1.06-18.26,3.18-25.05a37.43,37.43,0,0,1,9.91-16.53c4.49-4.24,10.4-7.37,17.56-9.34s16.18-3,26.58-3h93.69c2.49,0,3.63,1.11,3.63,3.63V65.5a5.71,5.71,0,0,1-.28,1.85l-.4,1.23h37.44V94.14Z"/></g></g></svg>