<svg xmlns="http://www.w3.org/2000/svg" viewBox="0 0 916.47 216.37"><defs><style>.cls-1{fill:#0080ff;}.cls-2{fill:#1e2023;}.cls-3{fill:#fff;}</style></defs><g id="Layer_2" data-name="Layer 2"><g id="Слой_1" data-name="Слой 1"><rect class="cls-1" x="42.9" y="167.13" width="873.57" height="49.24" rx="1.86"/><path class="cls-2" d="M357.4,81.81q-7.32-9.48-15-14.23A63,63,0,0,0,348,62.05c1.91-2.11,4-4.67,6.23-7.71l38.33-49.6a3.39,3.39,0,0,0,.5-3.06C392.74.56,391.71,0,390,0H365.5a8.18,8.18,0,0,0-3.76.59,7.09,7.09,0,0,0-2,2L325.78,48a36,36,0,0,1-4.15,4.54,15.22,15.22,0,0,1-4.35,2.77,19,19,0,0,1-5.53,1.29c-2.11.19-4.74.29-7.91.29H276V4.35Q276,0,271.63,0H250.29q-4.54,0-4.54,4.35V134q0,4.35,4.54,4.35h21.34q4.35,0,4.35-4.35V79.83h30q9.09,0,13.63,1.88a21.33,21.33,0,0,1,8.5,7l36.36,47a7.11,7.11,0,0,0,2,2,7.57,7.57,0,0,0,3.56.59h25.29c2,0,3-.69,3.16-2.08a4.25,4.25,0,0,0-.59-3.06Z"/><path class="cls-2" d="M541.08,11.76a38.92,38.92,0,0,0-17.1-9Q513.51,0,498.49,0H409.37Q405,0,405,4.35V23.71q0,4.35,4.35,4.35H497.3a52.58,52.58,0,0,1,12.75,1.29,16.43,16.43,0,0,1,8,4.34A17.64,17.64,0,0,1,522.3,42a56.1,56.1,0,0,1,1.29,13.14v1H453.7V82.22h69.89v1a54.93,54.93,0,0,1-1.29,13,17.66,17.66,0,0,1-4.25,8.2,16.43,16.43,0,0,1-8,4.34,52.58,52.58,0,0,1-12.75,1.29H409.37q-4.35,0-4.35,4.54V134q0,4.35,4.35,4.35h89.12q15,0,25.49-2.87a39.77,39.77,0,0,0,17.1-9.09,36.4,36.4,0,0,0,9.68-16.1q3.06-9.88,3.06-24.11v-34q0-14.23-3.06-24.21A36.37,36.37,0,0,0,541.08,11.76Z"/><path class="cls-2" d="M683.25,15q-4.93-9.09-10-12.06T660.53,0H649.07A20.49,20.49,0,0,0,638,3q-4.74,3-9.68,12.06L563.5,133.78A4.08,4.08,0,0,0,563,137c.33.86,1.28,1.29,2.86,1.29h25.89q3.36,0,4.54-2.57L653.41,29.44a2.43,2.43,0,0,1,2.18-1.38h1A2.33,2.33,0,0,1,659,29.44l57.9,106.32a5.68,5.68,0,0,0,1.68,2,5.35,5.35,0,0,0,2.86.59h24.9c1.71,0,2.74-.43,3.06-1.29a4.08,4.08,0,0,0-.49-3.26Z"/><path class="cls-2" d="M915.84,133.19,875.33,81.81q-7.32-9.48-15-14.23a63,63,0,0,0,5.63-5.53c1.91-2.11,4-4.67,6.23-7.71L910.5,4.74a3.36,3.36,0,0,0,.5-3.06Q910.5,0,907.94,0H883.43a8.13,8.13,0,0,0-3.75.59,7.11,7.11,0,0,0-2,2L843.71,48a35.31,35.31,0,0,1-4.15,4.54,15.08,15.08,0,0,1-4.35,2.77,19,19,0,0,1-5.53,1.29q-3.16.29-7.9.29H793.91V4.35q0-4.35-4.34-4.35H768.23c-3,0-4.55,1.45-4.55,4.35V134c0,2.9,1.51,4.35,4.55,4.35h21.34q4.33,0,4.34-4.35V79.83h30q9.09,0,13.64,1.88a21.31,21.31,0,0,1,8.49,7l36.36,47a7.11,7.11,0,0,0,2,2,7.57,7.57,0,0,0,3.56.59h25.29c2,0,3-.69,3.16-2.08A4.2,4.2,0,0,0,915.84,133.19Z"/><path class="cls-1" d="M157.08,50.72V26.8h-59A55.13,55.13,0,0,0,85,28.13a18,18,0,0,0-8.56,4.65,19.16,19.16,0,0,0-4.52,8.73A56.89,56.89,0,0,0,70.56,55V83.38A58,58,0,0,0,71.9,96.9a18.9,18.9,0,0,0,4.52,8.82A17.81,17.81,0,0,0,85,110.39a54.56,54.56,0,0,0,13.13,1.31h59V88.85h69v24.63H190.46l.12,1c0,.12,0,.24.07.36s0,.22,0,.35v19.62c0,2.45-1,3.5-3.5,3.5H96.92c-10,0-18.65-1-25.6-2.8a38.37,38.37,0,0,1-16.93-8.87,36,36,0,0,1-9.55-16c-2.05-6.61-3.07-14.78-3.07-24.26V81.48H0V56.85H41.77V51.94c0-9.49,1-17.61,3.07-24.15a36,36,0,0,1,9.55-15.92,39.47,39.47,0,0,1,16.93-9C78.29,1,86.9,0,96.92,0H187.2c2.41,0,3.5,1.07,3.5,3.5V23.12a5.61,5.61,0,0,1-.26,1.78l-.39,1.19h36.08V50.72Z"/><path class="cls-3" d="M98,182.75a10.4,10.4,0,0,1,2.92.4,8.92,8.92,0,0,1,2.31,1,15.18,15.18,0,0,1,1.6,1.13,6.87,6.87,0,0,1,1,1l.31.39-2,2-.25-.32a7.83,7.83,0,0,0-.73-.73,6.8,6.8,0,0,0-1.23-.92,8.92,8.92,0,0,0-1.71-.71,7.38,7.38,0,0,0-2.23-.33,7.46,7.46,0,0,0-5.28,12.71A7.14,7.14,0,0,0,98,200.49a7.49,7.49,0,0,0,2.24-.33,6.88,6.88,0,0,0,1.78-.79,13.81,13.81,0,0,0,1.24-.91,7.85,7.85,0,0,0,.81-.78l.22-.35,2,2a4.93,4.93,0,0,1-.34.44q-.24.27-1,1a12.39,12.39,0,0,1-1.68,1.22,10.17,10.17,0,0,1-2.32.95,10,10,0,0,1-2.94.43,10.35,10.35,0,0,1-7.54-3,10.3,10.3,0,0,1,0-14.61A10.35,10.35,0,0,1,98,182.75Z"/><path class="cls-3" d="M120.7,183v9.73l9-9.73h4l-7.72,8.3,8.29,11.73h-3.87l-6.58-9.44-3.14,3.43v6h-3.14V183Z"/><path class="cls-3" d="M160.46,183v20h-3.15V185.89H150V189a51.92,51.92,0,0,1-.42,7.23,13.3,13.3,0,0,1-1.26,4.41,5.24,5.24,0,0,1-1.86,2.09,4.92,4.92,0,0,1-2.46.58,6,6,0,0,1-1.09-.11,7.15,7.15,0,0,1-.9-.23l-.3-.08v-3a5.17,5.17,0,0,0,1.56.27,2.4,2.4,0,0,0,1.42-.41,3.82,3.82,0,0,0,1.12-1.54,11,11,0,0,0,.78-3.44,53.76,53.76,0,0,0,.26-5.77v-6Z"/><path class="cls-3" d="M171.19,203.06l8.29-20h3.15l8.29,20h-3.28l-2.15-5.3h-8.87l-2.15,5.3Zm9.87-16.46-3.29,8.3h6.58Z"/><path class="cls-3" d="M198.79,200.19h1.15a3.42,3.42,0,0,0,.37-.38,13.46,13.46,0,0,0,.81-1.24,13.16,13.16,0,0,0,1-2.13,18.46,18.46,0,0,0,.84-3.17,22.92,22.92,0,0,0,.37-4.24v-6h13v17.16h2.43v7.16h-3.16v-4.29H201.93v4.29h-3.14ZM206.52,189a23.53,23.53,0,0,1-.36,4.22,15.92,15.92,0,0,1-.86,3.19,20.06,20.06,0,0,1-1,2.11,6.42,6.42,0,0,1-.86,1.28l-.35.36h10.15v-14.3h-6.71Z"/><path class="cls-3" d="M249.42,182.75a10.36,10.36,0,0,1,7.54,3,10.28,10.28,0,0,1,0,14.61,10.34,10.34,0,0,1-7.53,3,10.6,10.6,0,0,1-2.94-.41,9.5,9.5,0,0,1-2.34-1,13.54,13.54,0,0,1-1.65-1.18,6.3,6.3,0,0,1-1-1l-.33-.39,2-2a3.21,3.21,0,0,0,.26.33,8.53,8.53,0,0,0,.76.76,8.15,8.15,0,0,0,1.25,1,8,8,0,0,0,1.76.77,7.8,7.8,0,0,0,2.27.34,7.08,7.08,0,0,0,4.83-1.69,7.85,7.85,0,0,0,2.46-4.47h-9.86v-2.85h9.86a8.25,8.25,0,0,0-2.61-4.22,6.93,6.93,0,0,0-4.68-1.65,7.82,7.82,0,0,0-2.24.32,6.78,6.78,0,0,0-1.74.74,9.2,9.2,0,0,0-1.21.87,5.58,5.58,0,0,0-.74.75l-.22.33-2-2,.33-.41a8.65,8.65,0,0,1,1-.93,11.23,11.23,0,0,1,1.63-1.17,10.95,10.95,0,0,1,5.22-1.34Z"/><path class="cls-3" d="M287,183v20h-3.14V185.89h-7.29V189a51.92,51.92,0,0,1-.42,7.23,13,13,0,0,1-1.27,4.41,5.3,5.3,0,0,1-1.85,2.09,5,5,0,0,1-2.47.58,6.1,6.1,0,0,1-1.09-.11,6.51,6.51,0,0,1-.89-.23l-.31-.08v-3a5.22,5.22,0,0,0,1.56.27,2.38,2.38,0,0,0,1.42-.41,3.83,3.83,0,0,0,1.13-1.54,11.62,11.62,0,0,0,.78-3.44,54.1,54.1,0,0,0,.25-5.77v-6Z"/><path class="cls-3" d="M303.18,200.19h11.3v2.87H300V183H314.2v2.86h-11v5.3h8.73v2.86h-8.73Z"/><path class="cls-3" d="M329.21,183v9.73l9-9.73h4l-7.73,8.3,8.3,11.73h-3.87l-6.58-9.44-3.14,3.43v6h-3.14V183Z"/><path class="cls-3" d="M351,183H366.1v2.86h-6v17.17H357V185.89h-6Z"/><path class="cls-3" d="M376.83,183h8a6.59,6.59,0,0,1,4.8,1.88,6.34,6.34,0,0,1,0,9.13,6.66,6.66,0,0,1-4.8,1.87H380v7.15h-3.14Zm8,2.86H380V193h4.86a3.48,3.48,0,0,0,2.53-1,3.61,3.61,0,0,0,0-5.09A3.46,3.46,0,0,0,384.83,185.89Z"/><path class="cls-3" d="M405.33,200.35a10.27,10.27,0,0,1,0-14.61,11,11,0,0,1,15.07,0,10.27,10.27,0,0,1,0,14.61,11,11,0,0,1-15.07,0Zm2.26-12.58a7.52,7.52,0,1,0,5.28-2.16A7.18,7.18,0,0,0,407.59,187.77Z"/><path class="cls-3" d="M451.48,183v20h-3.14v-8.73h-9.88v8.73h-3.14V183h3.14v8.45h9.88V183Z"/><path class="cls-3" d="M480.65,183v20h-3.14v-8.73h-9.88v8.73h-3.14V183h3.14v8.45h9.88V183Z"/><path class="cls-3" d="M501.38,203.06h-7.72V183h3.14v7.15h4.58a6.59,6.59,0,0,1,4.79,1.88,6.36,6.36,0,0,1,0,9.13A6.62,6.62,0,0,1,501.38,203.06Zm-4.58-2.87h4.58a3.49,3.49,0,0,0,2.53-1,3.61,3.61,0,0,0,0-5.09,3.47,3.47,0,0,0-2.53-1H496.8Zm17-17.16v20h-3.16V183Z"/><path class="cls-3" d="M533.84,190l5-7h3.72l-6.86,9.58,7.43,10.45h-3.71l-5.58-7.87-5.58,7.87h-3.72L532,192.61,525.12,183h3.71Z"/><path class="cls-3" d="M570,183v9.73l9-9.73h4l-7.72,8.3,8.29,11.73h-3.87l-6.57-9.44L570,197.05v6h-3.14V183Z"/><path class="cls-3" d="M594.8,200.35a10.27,10.27,0,0,1,0-14.61,11,11,0,0,1,15.07,0,10.3,10.3,0,0,1,0,14.61,11,11,0,0,1-15.07,0Zm2.25-12.58a7.53,7.53,0,1,0,5.28-2.16A7.18,7.18,0,0,0,597.05,187.77Z"/><path class="cls-3" d="M635.22,192.76l7.72-9.73h2.73v20h-3.14V188.48l-7.31,9.15-7.29-9.15v14.58h-3.14V183h2.71Z"/><path class="cls-3" d="M674.84,183v20h-3.15V185.89h-9.87v17.17h-3.14V183Z"/><path class="cls-3" d="M689.74,200.35a10.3,10.3,0,0,1,0-14.61,11,11,0,0,1,15.07,0,10.27,10.27,0,0,1,0,14.61,11,11,0,0,1-15.07,0ZM692,187.77a7.53,7.53,0,1,0,5.28-2.16A7.18,7.18,0,0,0,692,187.77Z"/><path class="cls-3" d="M735.89,183v20h-3.14v-8.73h-9.87v8.73h-3.15V183h3.15v8.45h9.87V183Z"/><path class="cls-3" d="M752,200.19h11.3v2.87H748.9V183h14.17v2.86H752v5.3h8.74v2.86H752Z"/><path class="cls-3" d="M791.09,183v20H788v-8.73h-9.88v8.73h-3.14V183h3.14v8.45H788V183Z"/><path class="cls-3" d="M801.81,183H817v2.86h-6v17.17h-3.14V185.89h-6Z"/><path class="cls-3" d="M828.44,200.35a10.3,10.3,0,0,1,0-14.61,11,11,0,0,1,15.07,0,10.27,10.27,0,0,1,0,14.61,11,11,0,0,1-15.07,0Zm2.26-12.58a7.53,7.53,0,1,0,5.28-2.16A7.18,7.18,0,0,0,830.7,187.77Z"/><path class="cls-3" d="M867,203.06h-8.57V183h8.14a5.87,5.87,0,0,1,4.15,1.6,4.92,4.92,0,0,1,1.22,5.9,4.24,4.24,0,0,1-1,1.4l-.52.4c.07,0,.18.1.31.19s.38.28.74.57a5.52,5.52,0,0,1,.91,1,5.9,5.9,0,0,1,.71,1.38,4.77,4.77,0,0,1,.33,1.75,5.5,5.5,0,0,1-1.84,4.14A6.47,6.47,0,0,1,867,203.06Zm-.43-17.31h-5v5.44h5a2.72,2.72,0,1,0,0-5.44Zm-5,14.58H867a3.29,3.29,0,1,0,0-6.57h-5.43Z"/></g></g></svg>