<?xml version="1.0" encoding="utf-8"?>
<!-- Generator: Adobe Illustrator 26.0.3, SVG Export Plug-In . SVG Version: 6.00 Build 0)  -->
<svg version="1.1" id="Слой_1" xmlns="http://www.w3.org/2000/svg" xmlns:xlink="http://www.w3.org/1999/xlink" x="0px" y="0px"
	 viewBox="0 0 1920 1080" style="enable-background:new 0 0 1920 1080;" xml:space="preserve">
<style type="text/css">
	.st0{fill:#0080FF;}
	.st1{fill:#1E2023;}
	.st2{fill:#FFFFFF;}
</style>
<path class="st0" d="M522.4,648.18h869.86c1.02,0,1.86-0.83,1.86-1.86V600.8c0-1.02-0.83-1.86-1.86-1.86H522.4
	c-1.02,0-1.86,0.83-1.86,1.86v45.53C520.55,647.35,521.38,648.18,522.4,648.18z"/>
<g>
	<path class="st1" d="M835.04,513.63c-4.88-6.32-9.88-11.07-15.02-14.23c1.84-1.58,3.72-3.42,5.63-5.53
		c1.91-2.11,3.98-4.67,6.23-7.71l38.34-49.6c0.66-0.92,0.82-1.94,0.49-3.06c-0.33-1.12-1.35-1.68-3.06-1.68h-24.5
		c-1.84,0-3.1,0.2-3.75,0.59c-0.66,0.39-1.32,1.06-1.98,1.98l-33.99,45.45c-1.45,1.85-2.84,3.36-4.15,4.54
		c-1.32,1.19-2.77,2.11-4.35,2.77c-1.58,0.66-3.43,1.09-5.53,1.28c-2.11,0.2-4.74,0.3-7.91,0.3h-27.86v-52.56
		c0-2.9-1.45-4.35-4.35-4.35h-21.34c-3.03,0-4.55,1.45-4.55,4.35V565.8c0,2.9,1.51,4.35,4.55,4.35h21.34c2.9,0,4.35-1.45,4.35-4.35
		v-54.15h30.04c6.06,0,10.6,0.63,13.64,1.88c3.03,1.25,5.86,3.59,8.5,7.01l36.36,47.03c0.66,0.92,1.31,1.58,1.98,1.98
		c0.66,0.39,1.84,0.59,3.56,0.59h25.29c1.98,0,3.03-0.69,3.16-2.08c0.13-1.38-0.07-2.4-0.59-3.06L835.04,513.63z"/>
	<path class="st1" d="M1018.72,443.57c-4.41-4.15-10.11-7.15-17.09-8.99c-6.98-1.85-15.48-2.77-25.49-2.77h-89.12
		c-2.9,0-4.35,1.45-4.35,4.35v19.37c0,2.9,1.45,4.35,4.35,4.35h87.94c5.14,0,9.39,0.43,12.75,1.28c3.36,0.85,6.03,2.3,8,4.35
		c1.98,2.04,3.39,4.81,4.25,8.3c0.86,3.49,1.28,7.87,1.28,13.14v0.97h-69.88v26.11h69.88v0.97c0,5.27-0.42,9.61-1.28,13.04
		c-0.86,3.42-2.27,6.16-4.25,8.2c-1.98,2.04-4.65,3.49-8,4.35c-3.36,0.86-7.61,1.29-12.75,1.29h-87.94c-2.9,0-4.35,1.51-4.35,4.54
		v19.37c0,2.9,1.45,4.35,4.35,4.35h89.12c10.01,0,18.51-0.96,25.49-2.87c6.98-1.91,12.68-4.94,17.09-9.09
		c4.42-4.15,7.64-9.52,9.68-16.11c2.04-6.59,3.06-14.62,3.06-24.11v-33.99c0-9.49-1.02-17.56-3.06-24.21
		C1026.36,453.12,1023.14,447.72,1018.72,443.57z"/>
	<path class="st1" d="M1160.9,446.83c-3.29-6.06-6.62-10.08-9.98-12.05c-3.36-1.98-7.61-2.96-12.75-2.96h-11.46
		c-4.21,0-7.9,0.99-11.07,2.96c-3.16,1.98-6.39,5.99-9.68,12.05l-64.82,118.76c-0.66,1.32-0.82,2.4-0.49,3.26
		c0.33,0.86,1.28,1.28,2.87,1.28h25.89c2.24,0,3.75-0.86,4.54-2.57l57.11-106.32c0.53-0.92,1.25-1.38,2.17-1.38h0.99
		c1.19,0,1.98,0.46,2.37,1.38l57.9,106.32c0.53,0.92,1.09,1.58,1.68,1.98c0.59,0.39,1.55,0.59,2.86,0.59h24.9
		c1.71,0,2.74-0.43,3.06-1.28c0.33-0.86,0.17-1.95-0.49-3.26L1160.9,446.83z"/>
	<path class="st1" d="M1393.49,565.01l-40.51-51.38c-4.88-6.32-9.88-11.07-15.02-14.23c1.84-1.58,3.72-3.42,5.63-5.53
		c1.91-2.11,3.98-4.67,6.23-7.71l38.34-49.6c0.66-0.92,0.82-1.94,0.49-3.06c-0.33-1.12-1.35-1.68-3.06-1.68h-24.5
		c-1.84,0-3.1,0.2-3.75,0.59c-0.66,0.39-1.32,1.06-1.98,1.98l-33.99,45.45c-1.45,1.85-2.84,3.36-4.15,4.54
		c-1.32,1.19-2.77,2.11-4.35,2.77c-1.58,0.66-3.43,1.09-5.53,1.28c-2.11,0.2-4.74,0.3-7.91,0.3h-27.86v-52.56
		c0-2.9-1.45-4.35-4.35-4.35h-21.34c-3.03,0-4.55,1.45-4.55,4.35V565.8c0,2.9,1.51,4.35,4.55,4.35h21.34c2.9,0,4.35-1.45,4.35-4.35
		v-54.15h30.04c6.06,0,10.6,0.63,13.64,1.88c3.03,1.25,5.86,3.59,8.5,7.01l36.36,47.03c0.66,0.92,1.31,1.58,1.98,1.98
		c0.66,0.39,1.84,0.59,3.56,0.59h25.29c1.98,0,3.03-0.69,3.16-2.08C1394.21,566.69,1394.01,565.67,1393.49,565.01z"/>
</g>
<g>
	<path class="st0" d="M634.72,482.54v-23.93h-58.96c-5.25,0-9.68,0.46-13.13,1.34c-3.57,0.92-6.44,2.48-8.56,4.64
		c-2.09,2.19-3.62,5.13-4.52,8.73c-0.88,3.53-1.34,8.05-1.34,13.45v28.42c0,5.4,0.46,9.94,1.34,13.52c0.9,3.7,2.43,6.66,4.52,8.83
		c2.12,2.19,4.98,3.74,8.56,4.67c3.45,0.88,7.85,1.31,13.13,1.31h58.96v-22.86h69.05v24.63h-35.67l0.12,1.02
		c0.02,0.12,0.05,0.24,0.07,0.36c0,0.1,0.05,0.22,0.05,0.34v19.62c0,2.46-1.05,3.5-3.5,3.5h-90.28c-10.04,0-18.65-0.95-25.6-2.8
		c-6.91-1.8-12.6-4.79-16.92-8.88c-4.33-4.08-7.56-9.46-9.56-16.02c-2.04-6.61-3.06-14.78-3.06-24.27v-4.89h-41.77v-24.63h41.77
		v-4.91c0-9.48,1.02-17.6,3.06-24.15c1.99-6.49,5.23-11.84,9.56-15.93c4.33-4.08,10.02-7.1,16.92-9c6.98-1.9,15.59-2.87,25.6-2.87
		h90.28c2.41,0,3.5,1.07,3.5,3.5v19.62c0,0.68-0.1,1.26-0.27,1.77l-0.39,1.19h36.08v24.63H634.72z"/>
</g>
<g>
	<path class="st2" d="M575.62,614.56c1.01,0,1.99,0.13,2.92,0.4c0.93,0.27,1.7,0.59,2.31,0.97c0.61,0.38,1.14,0.76,1.6,1.13
		c0.46,0.37,0.79,0.69,1.01,0.96l0.31,0.39l-2,2.01c-0.06-0.08-0.14-0.18-0.24-0.31c-0.11-0.13-0.35-0.38-0.73-0.73
		c-0.38-0.35-0.79-0.66-1.23-0.91s-1.01-0.49-1.71-0.71c-0.7-0.22-1.45-0.33-2.23-0.33c-2.08,0-3.84,0.72-5.28,2.16
		s-2.17,3.2-2.17,5.27c0,2.08,0.72,3.84,2.16,5.28c1.44,1.44,3.2,2.17,5.29,2.17c0.78,0,1.53-0.11,2.24-0.33
		c0.71-0.22,1.3-0.48,1.77-0.79c0.47-0.31,0.89-0.61,1.24-0.91c0.36-0.3,0.63-0.56,0.8-0.78l0.22-0.35l2.01,2.01
		c-0.07,0.11-0.19,0.26-0.34,0.44c-0.15,0.18-0.49,0.5-1.02,0.96c-0.53,0.46-1.09,0.86-1.68,1.22c-0.59,0.35-1.36,0.67-2.32,0.96
		c-0.95,0.28-1.93,0.43-2.94,0.43c-3,0-5.51-1-7.54-2.99c-2.03-1.99-3.04-4.43-3.04-7.31c0-2.88,1.01-5.31,3.04-7.3
		S572.62,614.56,575.62,614.56z"/>
	<path class="st2" d="M598.35,614.84v9.73l9.01-9.73h4.01l-7.72,8.3l8.3,11.73h-3.87l-6.58-9.44l-3.14,3.44v6.01h-3.14v-20.03
		H598.35z"/>
	<path class="st2" d="M638.1,614.84v20.03h-3.14v-17.17h-7.29v3.14c0,2.88-0.14,5.28-0.42,7.22c-0.28,1.94-0.7,3.41-1.27,4.41
		c-0.56,1.01-1.18,1.7-1.86,2.09c-0.67,0.39-1.5,0.58-2.47,0.58c-0.34,0-0.71-0.04-1.09-0.11c-0.38-0.07-0.68-0.15-0.89-0.22
		l-0.31-0.08v-3c0.57,0.19,1.09,0.28,1.57,0.28c0.55,0,1.02-0.14,1.42-0.41c0.39-0.27,0.77-0.79,1.12-1.54
		c0.35-0.75,0.61-1.9,0.78-3.44c0.17-1.54,0.25-3.46,0.25-5.77v-6.01H638.1z"/>
	<path class="st2" d="M648.83,634.87l8.3-20.03h3.14l8.3,20.03h-3.28l-2.15-5.29h-8.87l-2.15,5.29H648.83z M658.71,618.42l-3.3,8.3
		h6.58L658.71,618.42z"/>
	<path class="st2" d="M676.44,632.01h1.15c0.09-0.07,0.22-0.2,0.37-0.38c0.15-0.18,0.43-0.6,0.82-1.24
		c0.39-0.65,0.74-1.36,1.04-2.13s0.58-1.83,0.83-3.16c0.25-1.34,0.38-2.75,0.38-4.24v-6.01h13.02v17.17h2.43v7.15h-3.16v-4.29
		h-13.73v4.29h-3.14V632.01z M684.16,620.85c0,1.49-0.12,2.89-0.36,4.21c-0.24,1.32-0.52,2.38-0.86,3.19
		c-0.33,0.81-0.67,1.52-1.01,2.12c-0.33,0.6-0.62,1.03-0.87,1.28l-0.35,0.36h10.15v-14.3h-6.72V620.85z"/>
	<path class="st2" d="M727.06,614.56c3,0,5.51,1,7.54,2.99s3.05,4.43,3.05,7.3c0,2.88-1.02,5.31-3.05,7.31
		c-2.03,1.99-4.55,2.99-7.54,2.99c-1.01,0-1.99-0.14-2.93-0.41s-1.72-0.61-2.35-1c-0.62-0.39-1.17-0.78-1.65-1.17
		c-0.47-0.39-0.82-0.73-1.03-1.02l-0.33-0.39l2-2.01c0.06,0.08,0.14,0.18,0.26,0.33c0.12,0.15,0.37,0.4,0.76,0.76
		c0.39,0.36,0.81,0.68,1.26,0.96c0.45,0.28,1.03,0.53,1.76,0.76c0.73,0.23,1.48,0.34,2.26,0.34c1.95,0,3.56-0.56,4.83-1.69
		c1.27-1.13,2.09-2.62,2.46-4.47h-9.86v-2.85h9.86c-0.46-1.71-1.32-3.12-2.6-4.22c-1.28-1.1-2.84-1.65-4.69-1.65
		c-0.78,0-1.53,0.11-2.24,0.31c-0.71,0.21-1.29,0.46-1.75,0.74c-0.46,0.28-0.86,0.58-1.2,0.87c-0.34,0.3-0.59,0.55-0.74,0.75
		l-0.22,0.32l-2.01-2.01c0.08-0.09,0.18-0.23,0.33-0.41c0.15-0.18,0.47-0.49,0.98-0.93c0.51-0.44,1.05-0.83,1.63-1.17
		c0.58-0.34,1.34-0.65,2.28-0.93C725.07,614.7,726.05,614.56,727.06,614.56z"/>
	<path class="st2" d="M764.67,614.84v20.03h-3.14v-17.17h-7.29v3.14c0,2.88-0.14,5.28-0.42,7.22c-0.28,1.94-0.7,3.41-1.27,4.41
		c-0.56,1.01-1.18,1.7-1.86,2.09c-0.67,0.39-1.5,0.58-2.47,0.58c-0.34,0-0.71-0.04-1.09-0.11c-0.38-0.07-0.68-0.15-0.89-0.22
		l-0.31-0.08v-3c0.57,0.19,1.09,0.28,1.57,0.28c0.55,0,1.02-0.14,1.42-0.41c0.39-0.27,0.77-0.79,1.12-1.54
		c0.35-0.75,0.61-1.9,0.78-3.44c0.17-1.54,0.25-3.46,0.25-5.77v-6.01H764.67z"/>
	<path class="st2" d="M780.83,632.01h11.3v2.86h-14.44v-20.03h14.16v2.86h-11.02V623h8.73v2.86h-8.73V632.01z"/>
	<path class="st2" d="M806.85,614.84v9.73l9.01-9.73h4.01l-7.72,8.3l8.3,11.73h-3.87l-6.58-9.44l-3.14,3.44v6.01h-3.14v-20.03
		H806.85z"/>
	<path class="st2" d="M828.59,614.84h15.15v2.86h-6.01v17.17h-3.14v-17.17h-6.01V614.84z"/>
	<path class="st2" d="M854.48,614.84h8c1.91,0,3.51,0.63,4.8,1.88c1.29,1.25,1.93,2.77,1.93,4.57s-0.64,3.31-1.93,4.56
		c-1.29,1.25-2.89,1.87-4.8,1.87h-4.86v7.15h-3.14V614.84z M862.48,617.71h-4.86v7.15h4.86c0.99,0,1.83-0.34,2.53-1.03
		c0.7-0.68,1.05-1.53,1.05-2.54s-0.35-1.86-1.05-2.55C864.31,618.05,863.47,617.71,862.48,617.71z"/>
	<path class="st2" d="M882.97,632.16c-2.03-1.99-3.05-4.43-3.05-7.31c0-2.88,1.02-5.31,3.05-7.3s4.54-2.99,7.54-2.99
		s5.51,1,7.54,2.99s3.05,4.43,3.05,7.3c0,2.88-1.02,5.31-3.05,7.31c-2.03,1.99-4.54,2.99-7.54,2.99S885,634.16,882.97,632.16z
		 M885.23,619.59c-1.44,1.44-2.16,3.2-2.16,5.27c0,2.08,0.72,3.84,2.16,5.28c1.44,1.44,3.2,2.17,5.28,2.17s3.84-0.72,5.28-2.17
		c1.44-1.44,2.16-3.2,2.16-5.28c0-2.08-0.72-3.83-2.16-5.27c-1.44-1.44-3.2-2.16-5.28-2.16S886.67,618.15,885.23,619.59z"/>
	<path class="st2" d="M929.13,614.84v20.03h-3.14v-8.73h-9.88v8.73h-3.14v-20.03h3.14v8.45h9.88v-8.45H929.13z"/>
	<path class="st2" d="M958.29,614.84v20.03h-3.14v-8.73h-9.88v8.73h-3.14v-20.03h3.14v8.45h9.88v-8.45H958.29z"/>
	<path class="st2" d="M979.02,634.87h-7.72v-20.03h3.14v7.15h4.58c1.91,0,3.51,0.63,4.79,1.88c1.28,1.25,1.93,2.77,1.93,4.57
		s-0.64,3.31-1.93,4.56C982.53,634.25,980.93,634.87,979.02,634.87z M974.44,632.01h4.58c0.99,0,1.83-0.34,2.53-1.03
		c0.7-0.68,1.05-1.53,1.05-2.54c0-1.01-0.35-1.86-1.05-2.55c-0.7-0.69-1.54-1.03-2.53-1.03h-4.58V632.01z M991.47,614.84v20.03
		h-3.16v-20.03H991.47z"/>
	<path class="st2" d="M1011.49,621.86l5-7.01h3.72l-6.86,9.58l7.43,10.45h-3.72l-5.57-7.86l-5.59,7.86h-3.72l7.43-10.45l-6.86-9.58
		h3.72L1011.49,621.86z"/>
	<path class="st2" d="M1047.66,614.84v9.73l9.01-9.73h4.01l-7.72,8.3l8.3,11.73h-3.87l-6.58-9.44l-3.14,3.44v6.01h-3.14v-20.03
		H1047.66z"/>
	<path class="st2" d="M1072.44,632.16c-2.03-1.99-3.05-4.43-3.05-7.31c0-2.88,1.02-5.31,3.05-7.3c2.03-1.99,4.54-2.99,7.54-2.99
		s5.51,1,7.54,2.99c2.03,1.99,3.05,4.43,3.05,7.3c0,2.88-1.02,5.31-3.05,7.31c-2.03,1.99-4.54,2.99-7.54,2.99
		S1074.47,634.16,1072.44,632.16z M1074.7,619.59c-1.44,1.44-2.16,3.2-2.16,5.27c0,2.08,0.72,3.84,2.16,5.28
		c1.44,1.44,3.2,2.17,5.28,2.17c2.08,0,3.84-0.72,5.28-2.17c1.44-1.44,2.16-3.2,2.16-5.28c0-2.08-0.72-3.83-2.16-5.27
		c-1.44-1.44-3.2-2.16-5.28-2.16C1077.89,617.43,1076.13,618.15,1074.7,619.59z"/>
	<path class="st2" d="M1112.87,624.58l7.72-9.73h2.72v20.03h-3.14v-14.58l-7.31,9.15l-7.29-9.15v14.58h-3.14v-20.03h2.71
		L1112.87,624.58z"/>
	<path class="st2" d="M1152.48,614.84v20.03h-3.14v-17.17h-9.88v17.17h-3.14v-20.03H1152.48z"/>
	<path class="st2" d="M1167.39,632.16c-2.03-1.99-3.05-4.43-3.05-7.31c0-2.88,1.02-5.31,3.05-7.3c2.03-1.99,4.54-2.99,7.54-2.99
		s5.51,1,7.54,2.99c2.03,1.99,3.05,4.43,3.05,7.3c0,2.88-1.02,5.31-3.05,7.31c-2.03,1.99-4.54,2.99-7.54,2.99
		S1169.42,634.16,1167.39,632.16z M1169.64,619.59c-1.44,1.44-2.16,3.2-2.16,5.27c0,2.08,0.72,3.84,2.16,5.28
		c1.44,1.44,3.2,2.17,5.28,2.17c2.08,0,3.84-0.72,5.28-2.17c1.44-1.44,2.16-3.2,2.16-5.28c0-2.08-0.72-3.83-2.16-5.27
		c-1.44-1.44-3.2-2.16-5.28-2.16C1172.84,617.43,1171.08,618.15,1169.64,619.59z"/>
	<path class="st2" d="M1213.54,614.84v20.03h-3.14v-8.73h-9.88v8.73h-3.14v-20.03h3.14v8.45h9.88v-8.45H1213.54z"/>
	<path class="st2" d="M1229.69,632.01h11.3v2.86h-14.44v-20.03h14.16v2.86h-11.02V623h8.73v2.86h-8.73V632.01z"/>
	<path class="st2" d="M1268.73,614.84v20.03h-3.14v-8.73h-9.88v8.73h-3.14v-20.03h3.14v8.45h9.88v-8.45H1268.73z"/>
	<path class="st2" d="M1279.45,614.84h15.15v2.86h-6.01v17.17h-3.14v-17.17h-6.01V614.84z"/>
	<path class="st2" d="M1306.09,632.16c-2.03-1.99-3.05-4.43-3.05-7.31c0-2.88,1.02-5.31,3.05-7.3c2.03-1.99,4.54-2.99,7.54-2.99
		c2.99,0,5.51,1,7.54,2.99c2.03,1.99,3.05,4.43,3.05,7.3c0,2.88-1.02,5.31-3.05,7.31c-2.03,1.99-4.54,2.99-7.54,2.99
		C1310.63,635.15,1308.12,634.16,1306.09,632.16z M1308.35,619.59c-1.44,1.44-2.16,3.2-2.16,5.27c0,2.08,0.72,3.84,2.16,5.28
		c1.44,1.44,3.2,2.17,5.28,2.17c2.08,0,3.84-0.72,5.28-2.17c1.44-1.44,2.16-3.2,2.16-5.28c0-2.08-0.72-3.83-2.16-5.27
		c-1.44-1.44-3.2-2.16-5.28-2.16C1311.54,617.43,1309.78,618.15,1308.35,619.59z"/>
	<path class="st2" d="M1344.66,634.87h-8.58v-20.03h8.14c1.62,0,3,0.53,4.15,1.61c1.15,1.07,1.72,2.3,1.72,3.69
		c0,0.8-0.17,1.54-0.5,2.21c-0.33,0.67-0.66,1.14-0.98,1.4l-0.52,0.41c0.07,0.04,0.18,0.1,0.31,0.19c0.14,0.09,0.38,0.28,0.73,0.57
		c0.35,0.29,0.66,0.62,0.91,0.97c0.26,0.35,0.49,0.81,0.71,1.38c0.22,0.56,0.33,1.15,0.33,1.75c0,1.6-0.61,2.98-1.84,4.13
		C1348.02,634.3,1346.49,634.87,1344.66,634.87z M1344.22,617.57h-5V623h5c0.78,0,1.43-0.26,1.95-0.77
		c0.52-0.52,0.78-1.16,0.78-1.94c0-0.78-0.26-1.42-0.78-1.94C1345.66,617.83,1345.01,617.57,1344.22,617.57z M1339.22,632.15h5.43
		c0.93,0,1.71-0.31,2.35-0.94s0.95-1.41,0.95-2.34s-0.31-1.71-0.94-2.35c-0.63-0.63-1.41-0.95-2.35-0.95h-5.43V632.15z"/>
</g>
</svg>
