<svg xmlns="http://www.w3.org/2000/svg" viewBox="0 0 226.13 138.33"><defs><style>.cls-1{fill:#0080ff;}</style></defs><g id="Layer_2" data-name="Layer 2"><g id="Слой_1" data-name="Слой 1"><path class="cls-1" d="M157.08,50.72V26.8h-59A55.13,55.13,0,0,0,85,28.13a18,18,0,0,0-8.56,4.65,19.16,19.16,0,0,0-4.52,8.73A56.89,56.89,0,0,0,70.56,55V83.38A58,58,0,0,0,71.9,96.9a18.9,18.9,0,0,0,4.52,8.82A17.81,17.81,0,0,0,85,110.39a54.56,54.56,0,0,0,13.13,1.31h59V88.85h69v24.63H190.46l.12,1c0,.12,0,.24.07.36s0,.22,0,.35v19.62c0,2.45-1,3.5-3.5,3.5H96.92c-10,0-18.65-1-25.6-2.8a38.37,38.37,0,0,1-16.93-8.87,36,36,0,0,1-9.55-16c-2.05-6.61-3.07-14.78-3.07-24.26V81.48H0V56.85H41.77V51.94c0-9.49,1-17.61,3.07-24.15a36,36,0,0,1,9.55-15.92,39.47,39.47,0,0,1,16.93-9C78.29,1,86.9,0,96.92,0H187.2c2.41,0,3.5,1.07,3.5,3.5V23.12a5.61,5.61,0,0,1-.26,1.78l-.39,1.19h36.08V50.72Z"/></g></g></svg>